<svg height="48" viewBox="0 0 42 48" width="42" xmlns="http://www.w3.org/2000/svg"><path d="m30.093744 20.906256c.500004.499992.75 1.124988.75 1.875 0 .75-.234372 1.39062-.703116 1.921872-.468756.531252-1.04688.796872-1.734372.796872-.437512 0-.843756-.125004-1.218756-.375s-.671868-.578124-.890628-.984372c-.218748-.40626-.328128-.85938-.328128-1.359372 0-.375012.062508-.718752.187512-1.031256.124992-.312504.296868-.593744.515616-.843744.21876-.25.48438-.437508.796872-.562512.312504-.124992.625008-.187488.937512-.187488.687492 0 1.249992.249996 1.687488.75zm-12.187488 0c.499992-.500004 1.09374-.75 1.781244-.75s1.265628.249996 1.734372.75c.468756.499992.703128 1.124988.703128 1.875 0 .75-.234372 1.39062-.703128 1.921872-.468744.531252-1.046868.796872-1.734372.796872s-1.265628-.26562-1.734372-.796872c-.468756-.531252-.703128-1.171872-.703128-1.921872 0-.750012.218748-1.375008.656256-1.875zm27.093744-15.937512v43.031256c-3.62502-3.1875156-7.343736-6.562482-11.156256-10.125l1.312512 4.5h-27.281256c-1.312506 0-2.4531204-.4843704-3.4218744-1.4531256-.96875544-.968754-1.4531256-2.1406176-1.4531256-3.5156244v-32.437506c0-1.374996.48437016-2.546868 1.4531256-3.515616.968754-.96876 2.1093684-1.453128 3.4218744-1.453128h32.25c1.312512 0 2.453124.484368 3.421872 1.453128.96876.968748 1.453128 2.14062 1.453128 3.515616zm-6.843744 22.687512c0-2.250012-.281256-4.546872-.843756-6.890628-.5625-2.343768-1.156248-4.109372-1.781244-5.296884l-.843756-1.781244c-.625008-.500004-1.296876-.921876-2.015628-1.265628s-1.343748-.593748-1.875-.75-1.01562-.281244-1.453128-.375c-.437496-.093744-.781248-.140616-1.031244-.140616h-.375l-.281244.375c1.187496.375 2.281236.82812 3.281244 1.359372s1.6875.953124 2.0625 1.265628l.5625.468744c-2.750016-1.562508-5.74998-2.375004-9-2.4375s-6.218736.499992-8.906244 1.6875l-1.406256.75c1.312512-1.250004 3.406236-2.312496 6.281256-3.1875l-.187512-.281244c-2.187504 0-4.43748.843732-6.749994 2.531244-.2500008.500004-.5624976 1.156248-.9375 1.968756-.3750024.812496-.890622 2.453112-1.5468756 4.921872-.6562524 2.46876-.9843744 4.828116-.9843744 7.078128.1250004.312492.3593736.656244.7031256 1.031244.3437508.375 1.140618.906252 2.3906244 1.593756 1.2500064.687492 2.656242 1.031244 4.21875 1.031244.625008-.687504 1.156248-1.343748 1.593756-1.968756-.875016-.249996-1.671876-.609372-2.390628-1.078116-.718752-.468756-1.203132-.890628-1.453128-1.265628l-.375-.468744c.1250004.062496.26562.140616.421872.234372.156252.093744.29688.171876.421884.234372.124992.062496.187488.093744.187488.093744 2.12502 1.187508 4.484364 1.890624 7.078128 2.109384 2.593764.218748 5.234364-.203124 7.921872-1.265628.937512-.312504 1.843752-.781244 2.718756-1.406244-.812508 1.3125-2.249988 2.281236-4.3125 2.906244l1.593744 1.875c1.000008 0 1.921872-.140628 2.765628-.421872.843756-.281256 1.531248-.593748 2.0625-.9375s.999996-.687504 1.406256-1.031256c.406248-.343752.671868-.64062.796872-.890616z" fill="#f0f0f5" fill-rule="evenodd" transform="translate(-3)"/></svg>