<svg height="48" viewBox="0 0 48 48" width="48" xmlns="http://www.w3.org/2000/svg"><path d="m16.0645161 38.6050982c0 .264646-.1612924.3969677-.4838771.3969677-.3870968.0661621-.5806328-.0661596-.5806328-.3969677 0-.1984851.16128-.2977257.4838648-.2977257.3870967-.0661622.5806451.0330798.5806451.2977257zm-2.612897.0992419c-.3871092-.0661621-.5322612-.2315636-.4354932-.4962095.0967804-.264646.3064568-.3308069.6290292-.1984839.3225848.0661621.4516212.2315636.3870968.4962096-.064512.2646459-.2580604.3308068-.5806328.1984838zm3.8709677-.6946934c.3225724 0 .4999928.0992407.5322488.2977258s-.112896.3638866-.4354808.4962095c-.3225847.0661622-.5000051-.0330798-.5322611-.2977257-.032256-.264646.1129084-.4300475.4354931-.4962096zm6.3870844-38.0096467c4.3871257 0 8.4516047 1.05856348 12.1935608 3.17574125 3.7419437 2.11716507 6.6935288 5.02822734 8.8548294 8.73328845 2.1613007 3.7050484 3.2419386 7.8070009 3.2419386 12.3059973 0 5.4914029-1.5 10.40383-4.5 14.7374185-3.0000155 4.3335848-6.9193301 7.3273523-11.7580645 8.9813926-.5161332.1323232-.919358.0661619-1.2096743-.1984838-.2903288-.2646465-.4354808-.5954495-.4354808-.9924191 0-.0661622 0-1.1412713 0-3.2253616 0-2.0840916 0-3.7877269 0-5.1109592 0-2.1171714-.5483892-3.638866-1.6451675-4.5651281 1.4193631-.1984838 2.516129-.3638891 3.2903226-.4962032.7741935-.1323268 1.7419355-.4300462 2.9032258-.8931836s2.0483799-1.0585761 2.6612934-1.7863544c.6129012-.7277783 1.1451499-1.7532632 1.5967711-3.0765057.4516212-1.3232298.6774132-2.911075.6774132-4.7636119 0-1.25706-.193536-2.2825576-.580639-3.076493-.387103-.7939353-1.0322477-1.6871061-1.9354777-2.6795253.7741936-2.0510207.7096816-4.3004745-.1935608-6.7484501-.6451571-.1984966-1.5161187-.082709-2.612897.3473371-1.0967783.4300589-2.0645079.9097229-2.9032258 1.4390046l-1.1612903.8931836c-2.0000083-.5954515-4.0483758-.8931836-6.1451644-.8931836-2.0967763 0-4.1128877.2977321-6.048384.8931836-.3225848-.2646409-.7741935-.5789122-1.3548387-.9428014-.5806452-.3638891-1.4677347-.7939353-2.6612934-1.2901385-1.1935464-.4962159-2.0806396-.645082-2.6612873-.4465854-.9677468 2.4479756-1.0645198 4.6974294-.2903225 6.7484501-1.48387885 1.6540277-2.22580649 3.5726962-2.22580649 5.7560183 0 1.8525369.22580439 3.4403821.67741936 4.7636119.45161497 1.3232425.96773943 2.3487274 1.54838713 3.0765057.5806476.7277783 1.4193507 1.323217 2.516129 1.7863544s2.0483799.7773961 2.8548418.9428014c.8064496.1654053 1.8870875.3142586 3.2419386.4465854-.838718.7939353-1.3548387 1.9186698-1.5483871 3.3742251-.6451696.264646-1.3064547.4631285-1.9838803.5954515-.6774255.132323-1.5322467.0000025-2.564513-.3969677s-1.8709644-1.1578168-2.516129-2.2825703c-.3870993-.7277656-.8870933-1.3066778-1.50000065-1.736724-.61290612-.4300589-1.14515861-.6781605-1.59677358-.7443175l-.58064516-.0992356c-1.41936186 0-1.48387757.4962032-.19354839 1.4886224.45161497.2646408.90322374.694687 1.35483871 1.2901512.45161497.5954477.77419231 1.1247332.96774194 1.5878643l.38709677.7939353c.25806536.7939391.70967416 1.4555451 1.35483876 1.9848383.6451645.5292931 1.3548387.8600961 2.1290322.9924191.7741936.132323 1.5161311.1984838 2.2258003.1984838.7096815 0 1.2903267-.0330798 1.7419478-.0992419l.6774132-.0992419c0 .7939391.016128 1.9848307.048384 3.5727089.032256 1.5878783.0483964 2.4148857.0483964 2.4810479 0 .3969696-.1451644.7277726-.4354932.9924191-.2903164.2646457-.6935411.330807-1.2096743.1984838-4.9032502-1.6540403-8.87095246-4.6478078-11.9032258-8.9813926-3.03227335-4.3335885-4.5483871-9.2460156-4.5483871-14.7374185 0-6.880815 2.27417063-12.6367825 6.82258003-17.26810572 4.54841067-4.63131049 10.17738487-6.94692128 16.88709117-6.94692128zm-14.32257443 34.238454c.12903268-.1323268.29032135-.0992483.48387097.0992356.19354966.1984965.22580686.3638891.0967742.4962159-.12903268.1323268-.29032135.0992482-.48387097-.0992483-.19354963-.1984838-.22580687-.3638764-.0967742-.4962032zm-1.06451612-.7939353c.12903267-.1323268.29032134-.1654053.48387096-.0992356.19354963.1323141.25806534.2646409.19354839.3969677-.06451695.1984838-.19354715.2315623-.38709677.0992355-.25806535-.1323268-.35483954-.2646408-.29032258-.3969676zm3.19354835 3.473467c.1290327-.1984851.3225799-.1654041.5806452.0992419.2580653.2646459.3225786.4962083.1935484.6946934-.1935496.1984851-.419354.165404-.6774194-.0992419-.2580653-.264646-.2903238-.4962083-.0967742-.6946934zm-1.1612903-1.3893868c.1935496-.1984902.3870955-.1323205.5806452.1984838.1935496.264646.1935496.4631285 0 .5954515-.1935497.132323-.3709676.0496228-.5322575-.2481054-.1612911-.297727-.1774204-.4796678-.0483877-.5458299z" fill="#f0f0f5" fill-rule="evenodd"/></svg>