<svg height="40" viewBox="0 0 48 40" width="48" xmlns="http://www.w3.org/2000/svg"><path d="m43.031256 14.25c.062496.25.093744.656244.093744 1.218744 0 3.312528-.625 6.60936-1.875 9.890628s-3.015612 6.2812392-5.296872 9.0000024c-2.28126 2.7187644-5.234364 4.9218672-8.859384 6.6093756-3.625008 1.6875084-7.624968 2.53125-12 2.53125-5.5000212 0-10.5312216-1.4687352-15.093744-4.40625.6875034.0625008 1.468746.09375 2.34375.09375 4.5625224 0 8.6562324-1.4062356 12.28125-4.21875-2.187516 0-4.1093664-.6406188-5.7656256-1.9218756-1.656258-1.2812556-2.7968712-2.8906104-3.4218744-4.8281304.6250032.062508 1.2187476.093756 1.78125.093756.875004 0 1.749996-.093744 2.625-.281244-1.5000072-.312504-2.84375-.9375-4.03125-1.875-1.1875056-.937512-2.124996-2.078124-2.8125-3.421884-.687504-1.343748-1.03125-2.796864-1.03125-4.359372v-.1875c1.3750068.8125 2.843742 1.250004 4.40625 1.3125-2.9375148-2.000016-4.40625-4.749984-4.40625-8.25 0-1.75.4687452-3.406248 1.40625-4.968744 2.437512 3.062508 5.4218568 5.499984 8.953128 7.312488 3.531264 1.812516 7.296852 2.8125 11.296872 3-.125-.75-.1875-1.499988-.1875-2.25 0-2.687508.953112-4.99998 2.859372-6.937488 1.90626-1.93752 4.203128-2.906256 6.890628-2.906256 2.87502 0 5.281236 1.031244 7.218756 3.093744 2.25-.437496 4.343736-1.218744 6.281244-2.343744-.75 2.312508-2.1875 4.124988-4.3125 5.4375 1.875012-.249996 3.749988-.781248 5.625-1.593756-1.375008 2.000016-3.031236 3.718752-4.968744 5.156256z" fill="#f0f0f5" fill-rule="evenodd" transform="translate(0 -4)"/></svg>