<?xml version="1.0" encoding="iso-8859-1"?>
<svg version="1.1" id="Capa_1" xmlns="http://www.w3.org/2000/svg" xmlns:xlink="http://www.w3.org/1999/xlink" x="0px" y="0px"
	 viewBox="0 0 394.69 394.69" style="enable-background:new 0 0 394.69 394.69;" xml:space="preserve">
	<rect fill="#fff" x="67.071" y="127.783" transform="matrix(0.7071 -0.7071 0.7071 0.7071 -81.2718 197.5973)" width="261.629" height="138.239"/>
	<path fill="#fff" d="M388.801,78.658L316.609,5.442c-7.168-7.168-18.432-7.168-25.088-0.512c0,0,0,0-0.512,0.512l-31.744,31.744l97.792,98.304
		l31.744-31.744C395.969,96.578,395.969,85.314,388.801,78.658z"/>
	<path fill="#fff" d="M42.177,261.954L1.729,370.498c-3.584,9.216,1.024,19.456,10.24,23.04c4.096,1.536,8.704,1.536,12.8,0l108.544-40.96
		L42.177,261.954z"/>
</svg>
